<?xml version="1.0" encoding="utf-8"?>
<svg version="1.1" xmlns:xlink="http://www.w3.org/1999/xlink" width="25px" height="24px" xmlns="http://www.w3.org/2000/svg">
  <g transform="matrix(1 0 0 1 -877 -43 )">
    <path d="M 20.9283333333333 13  L 20.9283338478502 18.9014901503093  C 21.8543961959271 19.2481173147685  22.5147058823529 20.1513202739879  22.5147058823529 21.2109375  C 22.5147058823529 22.5700757515367  21.4283379959129 23.671875  20.0882352941177 23.671875  L 3.91176470588232 23.671875  C 2.5716620040871 23.671875  1.48529411764707 22.5700757515367  1.48529411764707 21.2109375  C 1.48529411764707 19.8517992484633  2.5716620040871 18.75  3.91176470588232 18.75  L 5.09500000000003 18.7499999999328  L 5.09500000000003 13  C 5.09500000000003 8.62774573050622  8.63941239717292 5.08333333333334  13.0116666666667 5.08333333333334  C 17.3839209361604 5.08333333333334  20.9283333333333 8.62774573050622  20.9283333333333 13  Z M 0.986842105263122 10.1666666666667  L 3.45394736842104 10.1666666666667  C 3.90812890611085 10.1666666666667  4.27631578947364 10.5397627084743  4.27631578947364 11  C 4.27631578947364 11.4602372915257  3.90812890611085 11.8333333333333  3.45394736842104 11.8333333333333  L 0.986842105263122 11.8333333333333  C 0.532660567573316 11.8333333333333  0.16447368421052 11.4602372915257  0.16447368421052 11  C 0.16447368421052 10.5397627084743  0.532660567573316 10.1666666666667  0.986842105263122 10.1666666666667  Z M 13.3223684210526 1  L 13.3223684210526 3.5  C 13.3223684210526 3.96023729152566  12.9541815376898 4.33333333333334  12.5 4.33333333333334  C 12.0458184623102 4.33333333333334  11.6776315789474 3.96023729152566  11.6776315789474 3.5  L 11.6776315789474 1  C 11.6776315789474 0.539762708474342  12.0458184623102 0.166666666666664  12.5 0.166666666666664  C 12.9541815376898 0.166666666666664  13.3223684210526 0.539762708474342  13.3223684210526 1  Z M 13.4374956885885 18.75  L 19.2616666666667 18.7499999999426  L 19.2616666666667 13  C 19.2616666666667 9.54822031355754  16.4634463531091 6.75000009313226  13.0116666666667 6.75000009313226  C 9.55988701659464 6.75000009313226  6.76166671810222 9.54822034992795  6.76166666666666 13  L 6.76167222941911 18.7499999999763  L 11.5625 18.7499999999365  L 11.5624988400884 15.8417886652845  C 10.4331385942234 15.4477336434119  9.62171046566039 14.3615565467357  9.62171046566039 13.0833333333333  C 9.62171046566039 11.4725028129935  10.9103645574303 10.1666666666667  12.4999999393445 10.1666666666667  C 14.0896353212589 10.1666666666667  15.3782894130288 11.4725028129935  15.3782894130288 13.0833333333333  C 15.3782894130288 14.3615569311726  14.5668607963773 15.4477342967667  13.4374992456108 15.8417868470396  L 13.4374956885885 18.75  Z M 18.4705882352941 4.39453125  C 18.4705882352941 5.07410037576836  19.0137721785142 5.625  19.6838235294117 5.625  C 20.3538748803094 5.625  20.8970588235294 5.07410037576836  20.8970588235294 4.39453125  C 20.8970588235294 3.71496212423164  20.3538748803094 3.1640625  19.6838235294117 3.1640625  C 19.0137721785142 3.1640625  18.4705882352941 3.71496212423164  18.4705882352941 4.39453125  Z M 3.10294117647061 4.39453125  C 3.10294117647061 5.07410037576836  3.64612511969062 5.625  4.31617647058829 5.625  C 4.98622782148584 5.625  5.52941176470586 5.07410037576836  5.52941176470586 4.39453125  C 5.52941176470586 3.71496212423164  4.98622782148584 3.1640625  4.31617647058829 3.1640625  C 3.64612511969062 3.1640625  3.10294117647061 3.71496212423164  3.10294117647061 4.39453125  Z M 21.546052631579 10.1666666666667  L 24.0131578947369 10.1666666666667  C 24.4673394324267 10.1666666666667  24.8355263157895 10.5397627084743  24.8355263157895 11  C 24.8355263157895 11.4602372915257  24.4673394324267 11.8333333333333  24.0131578947369 11.8333333333333  L 21.546052631579 11.8333333333333  C 21.0918710938892 11.8333333333333  20.7236842105264 11.4602372915257  20.7236842105264 11  C 20.7236842105264 10.5397627084743  21.0918710938892 10.1666666666667  21.546052631579 10.1666666666667  Z M 11.6659676733698 20  L 6.76166666666666 20.0000000000394  L 6.76166666666666 20.5  L 5.09500000000003 20.5  L 5.09500780332223 20  L 3.91176470588232 20  C 3.91176470588232 20.390625  3.91176470588232 20.390625  3.91176470588232 20.390625  C 3.46506380528388 20.390625  3.10294117647061 20.7578914161544  3.10294117647061 21.2109375  C 3.10294117647061 21.6639835838456  3.46506380528388 22.03125  3.91176470588232 22  L 20.0882352941177 22  C 20.5349361947161 22  20.8970588235294 21.6639835838456  20.8970588235294 21.2109375  C 20.8970588235294 20.90704316584  20.7341231765971 20.6417450544421  20.4920189033326 20.5  L 19.2616666666667 20.5  L 19.2616355780837 19.9999998729033  L 13.334028052256 19.9999989614835  C 13.1784127534524 20.2820786894585  12.8633452265904 20.475  12.5 20.475  C 12.1366543601863 20.475  11.821586529911 20.2820782506492  11.6659676733698 20  Z M 13.733552631579 13.0833333333333  C 13.733552631579 12.3929773960448  13.1812723065347 11.8333333333333  12.5 11.8333333333333  C 11.8187276934653 11.8333333333333  11.266447368421 12.3929773960448  11.266447368421 13.0833333333333  C 11.266447368421 13.7736892706218  11.8187276934653 14.3333333333333  12.5 14.3333333333333  C 13.1812723065347 14.3333333333333  13.733552631579 13.7736892706218  13.733552631579 13.0833333333333  Z " fill-rule="nonzero" fill="#ffffff" stroke="none" transform="matrix(1 0 0 1 877 43 )" />
  </g>
</svg>