<?xml version="1.0" encoding="utf-8"?>
<svg version="1.1" xmlns:xlink="http://www.w3.org/1999/xlink" width="20px" height="24px" xmlns="http://www.w3.org/2000/svg">
  <g transform="matrix(1 0 0 1 -449 -43 )">
    <path d="M 19.841234609375 16.2866659375  C 20.3843508666668 12.2686330985608  19.0340150337217 8.22582686765494  16.185189296875 5.340735  C 15.8728813183614 5.05843531900398  15.4127728107464 5.01337081934234  15.0516265234375 5.229710234375  C 14.6942598679449 5.44562236013825  14.5153230004149 5.86612397365113  14.6075274609375 6.27334296875  C 14.6607609892659 6.49548723354543  14.6956660001047 6.72162712695793  14.7118907421875 6.94948375  C 12.569112890625 1.7668480078125  8.9219495703125 0.674364414062499  8.8808704296875 0.663261914062501  C 8.56755626062438 0.575665014533802  8.23121254729437 0.646081796494776  7.9793494140625 0.852003984374997  C 7.71467470187006 1.06552338708277  7.58461737588548 1.404434985594  7.6385033984375 1.7402020703125  C 7.8483401953125 3.1779726953125  7.6063062109375 5.5672255078125  5.3558343359375 8.9168424609375  C 5.14781654524971 8.32344914215053  4.84484943447727 7.76775946257941  4.458754296875 7.271455546875  C 4.20979029022652 6.95028667764112  3.78754955236239 6.81750655983776  3.399578125 6.93838125  C 3.01155688127095 7.05290486096491  2.73764812356514 7.3992927170157  2.7156655859375 7.803264140625  C 2.59147805723492 8.95884456784433  2.27239206481783 10.0850304374187  1.77195515625 11.134006875  L 1.733096484375 11.2294881640625  C 1.29376902566225 12.2289752954132  0.948111216037757 13.2670637361913  0.700566210937499 14.3304096875  C 0.299518478053995 16.3411397897223  0.768212611372164 18.427675712628  1.99067390625 20.0737204296875  C 3.51353158346513 22.0477977239346  5.82840752751072 23.251127093083  8.31908515625 23.3633840234375  L 8.405684453125 23.3633840234375  C 8.40761792189772 23.3633955812837  8.4095514208978 23.3634013602455  8.41148492421533 23.3634013602455  C 8.94739796928782 23.3634013602455  9.38184133046533 22.928957999068  9.38184133046533 22.3930449539955  C 9.38184133046533 22.1154197627455  9.26292666036958 21.8510908305665  9.055179296875 21.6669257421875  C 8.4182844500945 21.1789133242117  8.00968281357887 20.4508156982101  7.924947265625 19.6529366015625  C 7.96082238832479 18.6457742421482  8.39724446700862 17.6945979059953  9.1373376171875 17.01054734375  C 10.0402762170231 16.0979376670931  10.6814065165744 14.9594712582759  10.9936716015625 13.714222265625  C 12.4148308606025 14.9647256929434  13.3271267915448 16.6937023014895  13.55723328125 18.572665703125  C 13.5999175543667 19.7782278412449  13.0464335015039 20.9275480575916  12.0772732421875 21.645831015625  C 11.8528842399215 21.829499278379  11.7227590981071 22.1041680969053  11.7227590981071 22.3941412940822  C 11.7227590981071 22.9282148210389  12.1557112352129 23.3611669581447  12.6897847621696 23.3611669581447  C 12.6906399727834 23.3611669581447  12.6914951830212 23.361165823658  12.692350390625 23.3611635546875  C 12.7965384952583 23.3623778808323  12.9000524765037 23.3443099757625  12.9976684765625 23.307871640625  C 17.8438991796875 21.6291773046875  19.3938048046875 18.5626734765625  19.841234609375 16.2866659375  Z M 15.3480626171875 19.9615854296875  C 15.4577983664035 19.4811695168136  15.5048202563052 18.9885593004251  15.487953828125 18.4960586328125  C 15.3847008203125 15.8836460546875  13.4639724609375 12.891528828125  10.602864453125 10.8753191796875  C 10.2760707718792 10.6390545356701  9.83640370816701 10.6323996369528  9.5026090625 10.85866546875  C 9.17004254471335 11.0826180351141  9.00945901228704 11.4880473452567  9.0984789453125 11.8789830078125  C 9.33348003810227 13.3077836725232  8.81168897544656 14.756363047897  7.7195514453125 15.7071166796875  C 6.61260531292217 16.7639424414327  5.98840830328462 18.2290994473113  5.993116484375 19.759520390625  C 6.01082280105533 20.1509584345404  6.08562946471899 20.5377089200287  6.2151659765625 20.9075163671875  C 5.15726907361398 20.509156299254  4.23354794524633 19.8198294100365  3.550571796875 18.91906296875  C 2.65968955843627 17.7151858518526  2.31821552577325 16.191252178272  2.6101920703125 14.7223270703125  C 2.81708709346547 13.8176617948459  3.11158206255306 12.9352924117141  3.4895081640625 12.0877095703125  L 3.5350283203125 11.9766848046875  C 3.6327301171875 11.7413123046875  3.7326523828125 11.5026091015625  3.82924390625 11.2605751171875  L 3.83479515625001 11.3715998828125  C 3.85063650009071 11.7733470242922  4.11729079264299 12.1217752959326  4.5009437109375 12.242033984375  C 4.88445152108957 12.366089548657  5.30471829799184 12.240142084058  5.5567891796875 11.9256133984375  C 8.07594093750001 8.81692015625  9.4426557421875 5.9125124609375  9.62695679687501 3.28011546875  C 11.6582803339493 4.90688442379304  13.0625892026712 7.18775824589521  13.6005329296875 9.7339846875  C 13.6791592250624 10.0714716748979  13.933883335634 10.3402056090864  14.266681484375 10.43677140625  C 14.5904223368203 10.5287997260194  14.9387396871969 10.4483220699407  15.1892972265625 10.2236038671875  C 15.6981023261172 9.79005044513805  16.1026358784925 9.247383470306  16.3728211328125 8.63594980468751  C 17.7368246435259 10.8062920875429  18.2944777230749 13.3870586595242  17.9482624609375 15.926945703125  C 17.6286132402312 17.5545493500473  16.698263693084 18.9981404076854  15.3480626171875 19.9615854296875  Z " fill-rule="nonzero" fill="#ffffff" stroke="none" transform="matrix(1 0 0 1 449 43 )" />
  </g>
</svg>