<?xml version="1.0" encoding="utf-8"?>
<svg version="1.1" xmlns:xlink="http://www.w3.org/1999/xlink" width="25px" height="25px" xmlns="http://www.w3.org/2000/svg">
  <g transform="matrix(1 0 0 1 -1507 -43 )">
    <path d="M 20.654296875 15.9393251135626  C 21.1208767361111 14.841553104045  21.3541666666667 13.6924075275795  21.3541666666667 12.4918883841661  C 21.3541666666667 10.7505948518278  20.8821614583333 9.15531040449924  19.9381510416667 7.7060350421804  L 7.666015625 19.9221284879948  C 9.15256076388889 20.8847069002812  10.7638888888889 21.3659961064244  12.5 21.3659961064244  C 13.7044270833333 21.3659961064244  14.8518880208333 21.1307592472421  15.9423828125 20.6602855288774  C 17.0328776041667 20.1898118105127  17.9741753472222 19.5598096474151  18.7662760416667 18.7702790395847  C 19.5583767361111 17.9807484317543  20.1877170138889 17.0370971230802  20.654296875 15.9393251135626  Z M 3.64583333333333 12.4918883841661  C 3.64583333333333 14.2439974042829  4.12868923611111 15.8609128271685  5.09440104166667 17.3426346528228  L 17.3828125 5.11031797534069  C 15.91796875 4.1261085874973  14.2903645833333 3.6340038935756  12.5 3.6340038935756  C 10.8940972222222 3.6340038935756  9.41297743055556 4.02876919749081  8.056640625 4.81829980532122  C 6.70030381944444 5.60783041315163  5.62608506944444 6.68397144711226  4.833984375 8.04672290720312  C 4.04188368055556 9.40947436729397  3.64583333333333 10.8911961929483  3.64583333333333 12.4918883841661  Z M 24.0071614583333 7.63303049967554  C 24.6690538194444 9.17423750811162  25 10.7938568029418  25 12.4918883841661  C 25 14.1899199653904  24.6690538194444 15.8122431321653  24.0071614583333 17.3588578844906  C 23.3452690972222 18.9054726368159  22.4582248263889 20.2357776335713  21.3460286458333 21.3497728747566  C 20.2338324652778 22.463768115942  18.9046223958333 23.3506381137789  17.3583984375 24.0103828682674  C 15.8121744791667 24.6701276227558  14.1927083333333 25  12.5 25  C 10.8072916666667 25  9.18782552083333 24.6701276227558  7.6416015625 24.0103828682674  C 6.09537760416667 23.3506381137789  4.76616753472222 22.463768115942  3.65397135416667 21.3497728747566  C 2.54177517361111 20.2357776335713  1.65473090277778 18.9054726368159  0.992838541666667 17.3588578844906  C 0.330946180555556 15.8122431321653  0 14.1899199653904  0 12.4918883841661  C 0 10.7938568029418  0.330946180555556 9.17423750811162  0.992838541666667 7.63303049967554  C 1.65473090277778 6.09182349123945  2.54177517361111 4.76422236642872  3.65397135416667 3.65022712524335  C 4.76616753472222 2.53623188405797  6.09537760416667 1.64936188622107  7.6416015625 0.989617131732642  C 9.18782552083333 0.329872377244211  10.8072916666667 0  12.5 0  C 14.1927083333333 0  15.8121744791667 0.329872377244211  17.3583984375 0.989617131732642  C 18.9046223958333 1.64936188622107  20.2338324652778 2.53623188405797  21.3460286458333 3.65022712524335  C 22.4582248263889 4.76422236642872  23.3452690972222 6.09182349123945  24.0071614583333 7.63303049967554  Z " fill-rule="nonzero" fill="#ffffff" stroke="none" transform="matrix(1 0 0 1 1507 43 )" />
  </g>
</svg>