<?xml version="1.0" encoding="utf-8"?>
<svg version="1.1" xmlns:xlink="http://www.w3.org/1999/xlink" width="25px" height="21px" xmlns="http://www.w3.org/2000/svg">
  <g transform="matrix(1 0 0 1 -1087 -45 )">
    <path d="M 11.4293323863636 0.126903973509933  L 13.5688920454545 0.126903973509933  L 24.9289772727273 19.357201986755  L 23.8813920454545 21  L 1.15589488636364 21  L 0.0710227272727273 19.357201986755  L 11.4293323863636 0.126903973509933  Z M 21.4968039772727 18.5436258278146  L 12.5 3.31514900662252  L 3.50497159090909 18.5436258278146  L 21.4968039772727 18.5436258278146  Z M 11.2198153409091 15.6613410596027  C 11.2198153409091 14.9850993377483  11.796875 14.4375  12.5071022727273 14.4375  C 13.2191051136364 14.4375  13.7961647727273 14.9850993377483  13.7961647727273 15.6613410596027  C 13.7844912386047 16.3471626417067  13.2075957663822 16.8940915026448  12.5071022727273 16.8834437086093  C 11.8072975030043 16.893122688956  11.2314916645817 16.3464739014508  11.2198153409091 15.6613410596027  Z M 11.2215909090909 7.01622516556291  L 13.7961647727273 7.01622516556291  L 13.5830965909091 13.3544701986755  L 11.4009232954545 13.3544701986755  L 11.2215909090909 7.01622516556291  Z " fill-rule="nonzero" fill="#ffffff" stroke="none" transform="matrix(1 0 0 1 1087 45 )" />
  </g>
</svg>