<?xml version="1.0" encoding="utf-8"?>
<svg version="1.1" xmlns:xlink="http://www.w3.org/1999/xlink" width="25px" height="25px" xmlns="http://www.w3.org/2000/svg">
  <g transform="matrix(1 0 0 1 -667 -43 )">
    <path d="M 0 12.5  C 0 5.60555556640625  5.60555556640625 0  12.5 0  C 19.3916666748047 0  24.9972222167969 5.60555556640625  25 12.5  C 25 19.3930555664063  19.3930555664063 25  12.5 25  C 5.60555556640625 25  0 19.3944444335937  0 12.5  Z M 22.2222222167969 12.5  C 22.2194444335938 7.13888889160156  17.8583333251953 2.77777778320313  12.5 2.77777778320313  C 7.13888889160156 2.77777778320313  2.77777778320313 7.13888889160156  2.77777778320313 12.5  C 2.77777778320313 17.8611111083984  7.13888889160156 22.2222222167969  12.5 22.2222222167969  C 17.8583333251953 22.2222222167969  22.2222222167969 17.8597222167969  22.2222222167969 12.5  Z " fill-rule="nonzero" fill="#ffffff" stroke="none" transform="matrix(1 0 0 1 667 43 )" />
  </g>
</svg>