<?xml version="1.0" encoding="utf-8"?>
<svg version="1.1" xmlns:xlink="http://www.w3.org/1999/xlink" width="25px" height="25px" xmlns="http://www.w3.org/2000/svg">
  <g transform="matrix(1 0 0 1 -1297 -43 )">
    <path d="M 9.87019230957031 22.9769230712891  C 8.89942289008403 24.0267717275773  7.51717768842349 24.5982262701309  6.08846154785156 24.5403846191406  C 4.59560665119668 24.5628444951434  3.15290595522393 24.0019092155721  2.06730769042969 22.9769230712891  C 0.996700396028697 21.9596367197042  0.390547745640374 20.5475181884037  0.390547745640374 19.0706730712891  C 0.390547745640374 17.5938279541744  0.996700396028697 16.1817094228739  2.06730769042969 15.1644230712891  L 6.75961538085938 10.4721153808594  L 8.32307692871094 12.0365384521484  L 3.63076923828125 16.7288461425781  C 2.95462854765723 17.3565348372568  2.57042553764827 18.2374447528953  2.57042553764827 19.1600277198662  C 2.57042553764827 20.9921261677869  4.05563478015723 22.4773354102959  5.88773322807796 22.4773354102959  C 6.81244641469093 22.4773354102959  7.69519100003179 22.0913620906065  8.32307692871094 21.4125  L 12.9634615478516 16.7298076904297  L 14.5278846191406 18.2846153808594  L 9.87019230957031 22.9769230712891  Z M 17.9134615478516 15.1653846191406  L 16.35 13.6009615478516  L 21.0326923095703 8.68557692871094  C 21.6379449455274 8.01822301649166  21.9482391682743 7.13483790544901  21.8932692382812 6.23557692871094  C 21.8448278121771 5.35155598631737  21.5467661969695 4.49937982034251  21.0336538574219 3.77788461914063  C 20.3630641777024 3.17308267671994  19.4772843011407 2.86361419489468  18.5759615478516 2.91923076171875  C 17.6946906059045 2.96882174821705  16.845380338909 3.26648033470837  16.1259615478516 3.77788461914063  L 11.6576923095703 8.68557692871094  L 9.87019230957031 7.12980769042969  L 14.5625 2.4375  C 15.6240510261477 1.37981629992973  17.0786456197096 0.812824112659666  18.5759615478516 0.873076928710938  C 20.056369577953 0.915180275916486  21.4766801855127 1.46788186622931  22.5961538574219 2.4375  C 23.6456967988537 3.50611284631654  24.2030941522498 4.96335856497147  24.1346153808594 6.45961538085938  C 24.0912413569435 7.93757264129209  23.5389810894325 9.35524446425348  22.5711538574219 10.4730769287109  L 17.9125 15.1653846191406  Z M 4.51634614257812 10.0076923095703  L 0.074038452148438 9.57788461914063  L 0.297115380859376 7.35192307128906  L 4.76538461914063 7.79038461914063  L 4.51538461914063 10.0076923095703  Z M 4.96346154785156 6.88846154785156  L 1.83461538085938 3.76923076171875  L 3.39903845214844 2.20576923828125  L 6.52692307128906 5.33365385742187  L 4.96346154785156 6.88942307128906  Z M 7.42115385742188 4.87884614257812  L 7.42115385742188 4.87692307128906  L 6.94807692871094 0.425961547851563  L 9.17403845214844 0.203846142578125  L 9.62115385742188 4.67307692871094  L 7.42115385742188 4.87884614257812  Z M 17.9134615478516 24.7461538574219  L 15.6798076904297 24.9692307617187  L 15.2326923095703 20.5009615478516  L 17.4673076904297 20.2769230712891  L 17.9134615478516 24.7461538574219  Z M 23.0442307617187 21.3942307617187  L 21.4807692382812 22.9586538574219  L 18.3605769287109 19.8307692382812  L 19.9163461425781 18.2663461425781  L 23.0442307617187 21.3942307617187  Z M 24.8317307617187 15.5759615478516  L 24.6086538574219 17.8019230712891  L 20.1394230712891 17.3634615478516  L 20.3634615478516 15.1298076904297  L 24.8317307617187 15.5759615478516  Z " fill-rule="nonzero" fill="#ffffff" stroke="none" transform="matrix(1 0 0 1 1297 43 )" />
  </g>
</svg>