<?xml version="1.0" encoding="utf-8"?>
<svg version="1.1" xmlns:xlink="http://www.w3.org/1999/xlink" width="18px" height="18px" xmlns="http://www.w3.org/2000/svg">
  <g transform="matrix(1 0 0 1 -271 -36 )">
    <path d="M 17.595703125 10.611328125  C 17.669921875 10.685546875  17.70703125 10.7734375  17.70703125 10.875  C 17.70703125 10.9140625  17.703125 10.94140625  17.6953125 10.95703125  C 17.1953125 13.05078125  16.1484375 14.748046875  14.5546875 16.048828125  C 12.9609375 17.349609375  11.09375 18  8.953125 18  C 7.8125 18  6.708984375 17.78515625  5.642578125 17.35546875  C 4.576171875 16.92578125  3.625 16.3125  2.7890625 15.515625  L 1.27734375 17.02734375  C 1.12890625 17.17578125  0.953125 17.25  0.75 17.25  C 0.546875 17.25  0.37109375 17.17578125  0.22265625 17.02734375  C 0.07421875 16.87890625  0 16.703125  0 16.5  L 0 11.25  C 0 11.046875  0.07421875 10.87109375  0.22265625 10.72265625  C 0.37109375 10.57421875  0.546875 10.5  0.75 10.5  L 6 10.5  C 6.203125 10.5  6.37890625 10.57421875  6.52734375 10.72265625  C 6.67578125 10.87109375  6.75 11.046875  6.75 11.25  C 6.75 11.453125  6.67578125 11.62890625  6.52734375 11.77734375  L 4.921875 13.3828125  C 5.4765625 13.8984375  6.10546875 14.296875  6.80859375 14.578125  C 7.51171875 14.859375  8.2421875 15  9 15  C 10.046875 15  11.0234375 14.74609375  11.9296875 14.23828125  C 12.8359375 13.73046875  13.5625 13.03125  14.109375 12.140625  C 14.1953125 12.0078125  14.40234375 11.55078125  14.73046875 10.76953125  C 14.79296875 10.58984375  14.91015625 10.5  15.08203125 10.5  L 17.33203125 10.5  C 17.43359375 10.5  17.521484375 10.537109375  17.595703125 10.611328125  Z M 17.77734375 0.972656250000001  C 17.92578125 1.12109375  18 1.296875  18 1.5  L 18 6.75  C 18 6.953125  17.92578125 7.12890625  17.77734375 7.27734375  C 17.62890625 7.42578125  17.453125 7.5  17.25 7.5  L 12 7.5  C 11.796875 7.5  11.62109375 7.42578125  11.47265625 7.27734375  C 11.32421875 7.12890625  11.25 6.953125  11.25 6.75  C 11.25 6.546875  11.32421875 6.37109375  11.47265625 6.22265625  L 13.08984375 4.60546875  C 11.93359375 3.53515625  10.5703125 3  9 3  C 7.953125 3  6.9765625 3.25390625  6.0703125 3.76171875  C 5.1640625 4.26953125  4.4375 4.96875  3.890625 5.859375  C 3.8046875 5.9921875  3.59765625 6.44921875  3.26953125 7.23046875  C 3.20703125 7.41015625  3.08984375 7.5  2.91796875 7.5  L 0.5859375 7.5  C 0.484375 7.5  0.396484375 7.462890625  0.322265625 7.388671875  C 0.248046875 7.314453125  0.2109375 7.2265625  0.2109375 7.125  L 0.2109375 7.04296875  C 0.71875 4.94921875  1.7734375 3.251953125  3.375 1.951171875  C 4.9765625 0.650390625  6.8515625 0  9 0  C 10.140625 0  11.25 0.216796875000001  12.328125 0.650390625  C 13.40625 1.083984375  14.36328125 1.6953125  15.19921875 2.484375  L 16.72265625 0.972656250000001  C 16.87109375 0.824218749999998  17.046875 0.749999999999999  17.25 0.749999999999999  C 17.453125 0.749999999999999  17.62890625 0.824218749999998  17.77734375 0.972656250000001  Z " fill-rule="nonzero" fill="#0a92fa" stroke="none" transform="matrix(1 0 0 1 271 36 )" />
  </g>
</svg>