<?xml version="1.0" encoding="utf-8"?>
<svg version="1.1" xmlns:xlink="http://www.w3.org/1999/xlink" width="16px" height="16px" xmlns="http://www.w3.org/2000/svg">
  <g transform="matrix(1 0 0 1 -636 -1717 )">
    <path d="M 4 10.6666666666667  L 4 14.6666666666667  L 12 14.6666666666667  L 12 10.6666666666667  L 4 10.6666666666667  Z M 13.3333333333333 10.3333333333333  L 13.3333333333333 14.6666666666667  L 14.6666666666667 14.6666666666667  L 14.6666666666667 5.33333333333333  C 14.6666666666667 5.23611111111111  14.6319444444444 5.10243055555556  14.5625 4.93229166666667  C 14.4930555555556 4.76215277777778  14.4236111111111 4.64236111111111  14.3541666666667 4.57291666666667  L 11.4270833333333 1.64583333333333  C 11.3576388888889 1.57638888888889  11.2395833333333 1.50694444444444  11.0729166666667 1.4375  C 10.90625 1.36805555555556  10.7708333333333 1.33333333333333  10.6666666666667 1.33333333333333  L 10.6666666666667 5.66666666666667  C 10.6666666666667 5.94444444444444  10.5694444444444 6.18055555555556  10.375 6.375  C 10.1805555555556 6.56944444444444  9.94444444444444 6.66666666666667  9.66666666666667 6.66666666666667  L 3.66666666666667 6.66666666666667  C 3.38888888888889 6.66666666666667  3.15277777777778 6.56944444444444  2.95833333333333 6.375  C 2.76388888888889 6.18055555555556  2.66666666666667 5.94444444444444  2.66666666666667 5.66666666666667  L 2.66666666666667 1.33333333333333  L 1.33333333333333 1.33333333333333  L 1.33333333333333 14.6666666666667  L 2.66666666666667 14.6666666666667  L 2.66666666666667 10.3333333333333  C 2.66666666666667 10.0555555555556  2.76388888888889 9.81944444444444  2.95833333333333 9.625  C 3.15277777777778 9.43055555555555  3.38888888888889 9.33333333333333  3.66666666666667 9.33333333333333  L 12.3333333333333 9.33333333333333  C 12.6111111111111 9.33333333333333  12.8472222222222 9.43055555555555  13.0416666666667 9.625  C 13.2361111111111 9.81944444444444  13.3333333333333 10.0555555555556  13.3333333333333 10.3333333333333  Z M 9.234375 5.234375  C 9.30034722222222 5.16840277777778  9.33333333333333 5.09027777777778  9.33333333333333 5  L 9.33333333333333 1.66666666666667  C 9.33333333333333 1.57638888888889  9.30034722222222 1.49826388888889  9.234375 1.43229166666667  C 9.16840277777778 1.36631944444444  9.09027777777778 1.33333333333333  9 1.33333333333333  L 7 1.33333333333333  C 6.90972222222222 1.33333333333333  6.83159722222222 1.36631944444444  6.765625 1.43229166666667  C 6.69965277777778 1.49826388888889  6.66666666666667 1.57638888888889  6.66666666666667 1.66666666666667  L 6.66666666666667 5  C 6.66666666666667 5.09027777777778  6.69965277777778 5.16840277777778  6.765625 5.234375  C 6.83159722222222 5.30034722222222  6.90972222222222 5.33333333333333  7 5.33333333333333  L 9 5.33333333333333  C 9.09027777777778 5.33333333333333  9.16840277777778 5.30034722222222  9.234375 5.234375  Z M 15.7916666666667 4.41666666666667  C 15.9305555555556 4.75  16 5.05555555555556  16 5.33333333333333  L 16 15  C 16 15.2777777777778  15.9027777777778 15.5138888888889  15.7083333333333 15.7083333333333  C 15.5138888888889 15.9027777777778  15.2777777777778 16  15 16  L 1 16  C 0.722222222222222 16  0.486111111111111 15.9027777777778  0.291666666666667 15.7083333333333  C 0.0972222222222222 15.5138888888889  0 15.2777777777778  0 15  L 0 1  C 0 0.722222222222221  0.0972222222222222 0.486111111111109  0.291666666666667 0.291666666666666  C 0.486111111111111 0.0972222222222214  0.722222222222222 0  1 0  L 10.6666666666667 0  C 10.9444444444444 0  11.25 0.0694444444444429  11.5833333333333 0.208333333333334  C 11.9166666666667 0.347222222222221  12.1805555555556 0.513888888888888  12.375 0.708333333333334  L 15.2916666666667 3.625  C 15.4861111111111 3.81944444444444  15.6527777777778 4.08333333333333  15.7916666666667 4.41666666666667  Z " fill-rule="nonzero" fill="#0a92fa" stroke="none" transform="matrix(1 0 0 1 636 1717 )" />
  </g>
</svg>