<?xml version="1.0" encoding="utf-8"?>
<svg version="1.1" xmlns:xlink="http://www.w3.org/1999/xlink" width="16px" height="14px" xmlns="http://www.w3.org/2000/svg">
  <g transform="matrix(1 0 0 1 -516 -1718 )">
    <path d="M 15.5267857142857 6.32625  C 15.8422619047619 7.10791666666666  16 8.07916666666667  16 9.24  C 16 10.2083333333333  15.6220238095238 11.52375  14.8660714285714 13.18625  C 14.8482142857143 13.2270833333333  14.8169642857143 13.2970833333333  14.7723214285714 13.39625  C 14.7276785714286 13.4954166666667  14.6875 13.5829166666667  14.6517857142857 13.65875  C 14.6160714285714 13.7345833333333  14.577380952381 13.79875  14.5357142857143 13.85125  C 14.4642857142857 13.9504166666667  14.3809523809524 14  14.2857142857143 14  C 14.1964285714286 14  14.1264880952381 13.9708333333333  14.0758928571429 13.9125  C 14.0252976190476 13.8541666666667  14 13.78125  14 13.69375  C 14 13.64125  14.0074404761905 13.5639583333333  14.0223214285714 13.461875  C 14.0372023809524 13.3597916666667  14.0446428571429 13.29125  14.0446428571429 13.25625  C 14.0744047619048 12.8595833333333  14.0892857142857 12.5008333333333  14.0892857142857 12.18  C 14.0892857142857 11.5908333333333  14.0372023809524 11.0629166666667  13.9330357142857 10.59625  C 13.828869047619 10.1295833333333  13.6845238095238 9.725625  13.5 9.384375  C 13.3154761904762 9.043125  13.077380952381 8.74854166666666  12.7857142857143 8.500625  C 12.4940476190476 8.25270833333333  12.1800595238095 8.05  11.84375 7.8925  C 11.5074404761905 7.735  11.1116071428571 7.61104166666667  10.65625 7.520625  C 10.2008928571429 7.43020833333333  9.74255952380952 7.3675  9.28125 7.3325  C 8.81994047619048 7.2975  8.29761904761905 7.28  7.71428571428571 7.28  L 5.71428571428571 7.28  L 5.71428571428571 9.52  C 5.71428571428571 9.67166666666667  5.6577380952381 9.80291666666667  5.54464285714286 9.91375  C 5.43154761904762 10.0245833333333  5.29761904761905 10.08  5.14285714285714 10.08  C 4.98809523809524 10.08  4.85416666666667 10.0245833333333  4.74107142857143 9.91375  L 0.169642857142857 5.43375  C 0.056547619047619 5.32291666666667  0 5.19166666666667  0 5.04  C 0 4.88833333333333  0.056547619047619 4.75708333333333  0.169642857142857 4.64625  L 4.74107142857143 0.16625  C 4.85416666666667 0.055416666666666  4.98809523809524 0  5.14285714285714 0  C 5.29761904761905 0  5.43154761904762 0.055416666666666  5.54464285714286 0.16625  C 5.6577380952381 0.277083333333332  5.71428571428571 0.408333333333332  5.71428571428571 0.560000000000001  L 5.71428571428571 2.8  L 7.71428571428571 2.8  C 11.9583333333333 2.8  14.5625 3.97541666666667  15.5267857142857 6.32625  Z " fill-rule="nonzero" fill="#0a92fa" stroke="none" transform="matrix(1 0 0 1 516 1718 )" />
  </g>
</svg>