<?xml version="1.0" encoding="utf-8"?>
<svg version="1.1" xmlns:xlink="http://www.w3.org/1999/xlink" width="20px" height="20px" xmlns="http://www.w3.org/2000/svg">
  <g transform="matrix(1 0 0 1 -50 -73 )">
    <path d="M 14.68994140625 0.712890625  L 18.89404296875 0.712890625  C 19.21875 0.712890625  19.47998046875 0.97412109375  19.47998046875 1.298828125  L 19.47998046875 18.9990234375  C 19.47998046875 19.32373046875  19.21875 19.5849609375  18.89404296875 19.5849609375  L 1.04248046875 19.5849609375  C 0.7177734375 19.5849609375  0.45654296875 19.32373046875  0.45654296875 18.9990234375  L 0.45654296875 1.298828125  C 0.45654296875 0.97412109375  0.7177734375 0.712890625  1.04248046875 0.712890625  L 5.6787109375 0.712890625  C 6.00341796875 0.712890625  6.2646484375 0.97412109375  6.2646484375 1.298828125  C 6.2646484375 1.62353515625  6.00341796875 1.884765625  5.6787109375 1.884765625  L 2 1.884765625  L 2 18.4130859375  L 18 18.4130859375  L 18 1.884765625  L 14.68994140625 1.884765625  C 14.365234375 1.884765625  14.10400390625 1.62353515625  14.10400390625 1.298828125  C 14.10400390625 0.97412109375  14.365234375 0.712890625  14.68994140625 0.712890625  Z M 6.767578125 1.083984375  C 6.767578125 0.673828125  7.0458984375 0.3271484375  7.353515625 0.3271484375  L 12.87353515625 0.3271484375  C 13.2080078125 0.3271484375  13.45947265625 0.673828125  13.45947265625 1.083984375  L 13.45947265625 1.46240234375  C 13.45947265625 1.87255859375  13.1787109375 2.21923828125  12.87353515625 2.21923828125  L 7.353515625 2.21923828125  C 7.01904296875 2.21923828125  6.767578125 1.87255859375  6.767578125 1.46240234375  L 6.767578125 1.083984375  Z M 4.1015625 13.59130859375  L 8.2080078125 13.59130859375  C 8.52294921875 13.59130859375  8.84033203125 13.2763671875  8.84033203125 12.958984375  C 8.84033203125 12.64404296875  8.525390625 12.32666015625  8.2080078125 12.32666015625  L 4.1015625 12.32666015625  C 3.78662109375 12.32666015625  3.46923828125 12.6416015625  3.46923828125 12.958984375  C 3.46923828125 13.27392578125  3.7841796875 13.59130859375  4.1015625 13.59130859375  Z M 4.1015625 16.11572265625  L 5.99609375 16.11572265625  C 6.31103515625 16.11572265625  6.62841796875 15.80078125  6.62841796875 15.4833984375  C 6.62841796875 15.16845703125  6.3134765625 14.85107421875  5.99609375 14.85107421875  L 4.1015625 14.85107421875  C 3.78662109375 14.853515625  3.46923828125 15.16845703125  3.46923828125 15.4833984375  C 3.46923828125 15.79833984375  3.7841796875 16.11572265625  4.1015625 16.11572265625  Z M 11.8408203125 6.1376953125  L 15.947265625 6.1376953125  C 16.26220703125 6.1376953125  16.57958984375 5.82275390625  16.57958984375 5.50537109375  C 16.57958984375 5.1904296875  16.2646484375 4.873046875  15.947265625 4.873046875  L 11.8408203125 4.873046875  C 11.5234375 4.873046875  11.20849609375 5.18798828125  11.20849609375 5.50537109375  C 11.20849609375 5.8203125  11.5234375 6.1376953125  11.8408203125 6.1376953125  Z M 11.8408203125 8.66455078125  L 13.7353515625 8.66455078125  C 14.05029296875 8.66455078125  14.36767578125 8.349609375  14.36767578125 8.0322265625  C 14.36767578125 7.71728515625  14.052734375 7.39990234375  13.7353515625 7.39990234375  L 11.8408203125 7.39990234375  C 11.5234375 7.39990234375  11.20849609375 7.71484375  11.20849609375 8.0322265625  C 11.20849609375 8.34716796875  11.5234375 8.66455078125  11.8408203125 8.66455078125  Z M 4.892578125 9.26513671875  L 7.9248046875 9.26513671875  C 8.08349609375 8.759765625  8.65234375 8.50830078125  9.1259765625 8.6962890625  C 9.599609375 8.88671875  9.8828125 9.423828125  9.69482421875 9.8974609375  C 9.5361328125 10.40283203125  8.96728515625 10.654296875  8.49365234375 10.46630859375  C 8.2080078125 10.400390625  8.017578125 10.17822265625  7.92236328125 9.89501953125  L 4.892578125 9.89501953125  C 4.10400390625 9.86328125  3.50341796875 9.23095703125  3.53515625 8.4423828125  C 3.56689453125 7.685546875  4.16748046875 7.0849609375  4.892578125 7.0849609375  L 8.3349609375 7.0849609375  C 8.77685546875 7.0849609375  9.12353515625 6.73828125  9.12353515625 6.29638671875  C 9.12353515625 5.8544921875  8.77685546875 5.5078125  8.3349609375 5.5078125  L 5.302734375 5.5078125  C 5.17578125 5.88623046875  4.8291015625 6.14013671875  4.4189453125 6.14013671875  C 3.91357421875 6.14013671875  3.50341796875 5.72998046875  3.4716796875 5.224609375  C 3.4716796875 4.71923828125  3.8818359375 4.27734375  4.38720703125 4.24560546875  C 4.79736328125 4.24560546875  5.17578125 4.4970703125  5.302734375 4.8779296875  L 8.3349609375 4.8779296875  C 9.12353515625 4.84619140625  9.755859375 5.478515625  9.78759765625 6.2353515625  C 9.8193359375 7.02392578125  9.18701171875 7.65625  8.43017578125 7.68798828125  L 4.892578125 7.68798828125  C 4.45068359375 7.68798828125  4.10400390625 8.03466796875  4.10400390625 8.4765625  C 4.10400390625 8.91845703125  4.45068359375 9.26513671875  4.892578125 9.26513671875  Z M 16.4697265625 11.435546875  C 16.71142578125 11.650390625  16.7333984375 12.021484375  16.5185546875 12.26318359375  L 13.33251953125 15.85693359375  C 13.2177734375 15.986328125  13.056640625 16.05224609375  12.89306640625 16.05224609375  C 12.7587890625 16.05224609375  12.62451171875 16.005859375  12.5146484375 15.9130859375  L 10.615234375 14.306640625  C 10.36865234375 14.0966796875  10.3369140625 13.72802734375  10.546875 13.4814453125  C 10.7568359375 13.23486328125  11.12548828125 13.203125  11.3720703125 13.4130859375  L 12.83447265625 14.6484375  L 15.64208984375 11.484375  C 15.85693359375 11.24267578125  16.22802734375 11.220703125  16.4697265625 11.435546875  Z " fill-rule="nonzero" fill="#ffffff" stroke="none" transform="matrix(1 0 0 1 50 73 )" />
  </g>
</svg>