<?xml version="1.0" encoding="utf-8"?>
<svg version="1.1" xmlns:xlink="http://www.w3.org/1999/xlink" width="20px" height="20px" xmlns="http://www.w3.org/2000/svg">
  <g transform="matrix(1 0 0 1 -50 -27 )">
    <path d="M 10 13.7037037109375  C 10 16.2500000217014  12.0833333333333 18.3333333333333  14.6296296223958 18.3333333333333  C 17.1759259114583 18.3333333333333  19.2592592447916 16.25  19.2592592664931 13.7037037109375  C 19.2592592881945 11.157407421875  17.1759259331597 9.07407408854166  14.6296296223958 9.07407406684026  C 12.0833333333333 9.07407406684026  10 11.1574074001736  10 13.7037037109375  Z M 3.51851851128471 19.2592592664931  C 4.8148148003472 19.2592592664931  5.87962962239582 18.3796296440972  6.20370371093751 17.1759259331597  L 9.72222222222222 17.1759259331597  C 9.44444444444444 16.7592592664931  9.16666666666667 16.2962963107639  8.98148148871529 15.7870370442708  L 6.20370371093751 15.7870370442708  C 5.87962964409725 14.5833333333333  4.81481482204862 13.7037037109375  3.51851851128471 13.7037037109375  C 1.99074073350693 13.7037037109375  0.740740733506931 14.9537037109375  0.740740733506931 16.4814814887153  C 0.740740733506931 18.0092592664931  1.99074073350693 19.2592592664931  3.51851851128471 19.2592592664931  Z M 13.7962962890625 2.82407406684026  L 4.9074074001736 2.82407406684026  C 2.73148146701386 2.82407406684026  0.972222222222222 4.58333333333333  0.972222222222222 6.75925926649307  C 0.972222222222222 8.93518519965277  2.73148148871529 10.6944444444444  4.9074074001736 10.6944444444444  L 9.44444444444444 10.6944444444444  C 9.76851851128471 10.1851851779514  10.1388888888889 9.72222222222222  10.5555555555556 9.30555555555556  L 4.9074074001736 9.30555555555556  C 3.51851851128471 9.30555555555556  2.36111111111111 8.14814815538196  2.36111111111111 6.75925926649307  C 2.36111111111111 5.37037037760418  3.51851851128471 4.21296297743055  4.9074074001736 4.21296295572915  L 13.7962962890625 4.21296295572915  C 14.1203703559028 5.41666666666667  15.1851851779514 6.29629628906249  16.4814814887153 6.29629628906249  C 18.0092592664931 6.29629628906249  19.2592592664931 5.04629628906249  19.2592592664931 3.51851851128471  C 19.2592592664931 1.99074073350693  18.0092592664931 0.740740733506931  16.4814814887153 0.740740733506931  C 15.1851851996528 0.740740733506931  14.1203703776042 1.62037035590278  13.7962962890625 2.82407406684026  Z M 17.8703703776042 13.7037037109375  C 17.8703703993056 15.5092592881944  16.4351851996528 16.9444444444444  14.6296296223958 16.9444444444444  C 12.8240740451388 16.9444444444444  11.3888888888889 15.5092592664931  11.3888888888889 13.7037037109375  C 11.3888888888889 11.898148155382  12.8240740668403 10.4629629774305  14.6296296223958 10.4629629557292  C 16.4351851779514 10.4629629557292  17.8703703559028 11.8981481336806  17.8703703776042 13.7037037109375  Z M 2.12962962239582 16.4814814887153  C 2.12962962239582 15.6944444444444  2.73148146701386 15.0925925998264  3.51851851128471 15.0925925998264  C 4.30555555555556 15.0925925998264  4.9074074001736 15.6944444444444  4.9074074001736 16.4814814887153  C 4.9074074001736 17.2685185329861  4.30555555555556 17.8703703776042  3.51851851128471 17.8703703776042  C 2.73148146701386 17.8703703776042  2.12962962239582 17.2685185329861  2.12962962239582 16.4814814887153  Z M 17.8703703776042 3.51851851128471  C 17.8703703776042 4.30555555555556  17.2685185329861 4.9074074001736  16.4814814887153 4.9074074001736  C 15.6944444444444 4.9074074001736  15.0925925998264 4.30555555555556  15.0925925998264 3.51851851128471  C 15.0925925998264 2.73148146701389  15.6944444444444 2.12962962239582  16.4814814887153 2.12962962239582  C 17.2685185329861 2.12962962239582  17.8703703776042 2.73148146701389  17.8703703776042 3.51851851128471  Z M 16.9444444444444 13.2407407335069  L 15.0925925998264 13.2407407335069  L 15.0925925998264 11.3888888888889  L 13.7037037109375 11.3888888888889  L 13.7037037109375 14.6296296223958  L 16.9444444444444 14.6296296223958  L 16.9444444444444 13.2407407335069  Z " fill-rule="nonzero" fill="#ffffff" stroke="none" transform="matrix(1 0 0 1 50 27 )" />
  </g>
</svg>