<?xml version="1.0" encoding="utf-8"?>
<svg version="1.1" xmlns:xlink="http://www.w3.org/1999/xlink" width="19px" height="20px" xmlns="http://www.w3.org/2000/svg">
  <g transform="matrix(1 0 0 1 -51 -119 )">
    <path d="M 3.65325979003906 6.1444976748512  C 3.65349725292966 2.75038286830355  6.26497006542969 0  9.48911906738284 0  C 12.7135055322266 0  15.3401765078125 2.75038286830355  15.3442135253907 6.1444976748512  C 15.3442135253907 10.1059250930059  11.0094108769531 13.3081582589286  9.80329369726563 14.1278214099702  C 9.61309366364088 14.2557041524325  9.36466950823415 14.2557041524325  9.1744694746094 14.1278214099702  C 7.9681148320312 13.3081582775297  3.65325977148433 10.1021160342262  3.65325979003906 6.1444976748512  Z M 12.9759113964844 2.39852049851189  C 12.0628494095731 1.43936622349521  10.8072338308312 0.882941823690327  9.48508204980465 0.851564043898796  C 8.16412579275588 0.883044253929105  6.90956649713628 1.43953888952984  5.99805223925779 2.39852049851189  C 5.08680087316638 3.35928832989193  4.59291680677789 4.64319763605566  4.62475520996096 5.96856649925593  C 4.56230024316401 8.73013848586311  6.73943789843747 11.0201006510417  9.48888158593751 11.0855689546131  C 10.810597586545 11.0569724279273  12.0660761493284 10.499916810791  12.9759113964844 9.53837444196427  C 13.8888675794369 8.57850085100522  14.3842773740193 7.2944856569911  14.3532454248047 5.96856649925593  C 14.3843407641596 4.6425655421276  13.888926411536 3.35845290719065  12.9759113964844 2.39852049851189  Z M 0 14.3442239025298  C 0 13.2124555245536  0.905003454101592 12.2951851004464  2.0213564326172 12.2951851004464  L 4.5850974970703 12.2951851004464  C 4.93750502539066 12.3166110863096  5.21225942382812 12.6122897507441  5.21225942382812 12.9701037760417  C 5.21225942382812 13.3276797433035  4.93750502539066 13.6235964657738  4.58533495996091 13.6450224330357  L 2.00140882617191 13.6450224330357  C 1.81000688964846 13.6247867745536  1.61860495312502 13.6895408854167  1.47089776562504 13.8147638950893  C 1.32405925479518 13.9425181400248  1.23611911404977 14.125210194897  1.22772706347658 14.3199411086309  C 1.23500486549781 14.5207357598596  1.32265832086748 14.7101264017098  1.47089776562504 14.8453539992559  C 1.6224045078125 14.9786712611607  1.81784346191402 15.0434253720238  2.01328239746093 15  L 13.5710147011719 15  C 13.6641034755859 14.9758144717262  13.7695407841797 14.9493890811012  13.8813897949219 14.9493890811012  L 16.8260349550781 14.9493890811012  C 17.5892679794922 14.9136790922619  18.3085688105469 15.2917287760416  18.7020589033203 15.9411743303571  C 19.094676962119 16.5875975705747  19.0961413802296 17.3992681892621  18.7058584394531 18.047111030506  C 18.3152180126954 18.6958423735119  17.59567971875 19.0786534040178  16.8341089902344 19  L 3.33481066113286 19  C 2.96910472851567 19.0272310267857  2.67938964843748 18.728219438244  2.67938962988287 18.366120219494  C 2.67938962988287 18.0037829241071  2.96910470996095 17.7047713355655  3.33481066113286 17.6890589471726  L 16.854056578125 17.6890589471726  C 17.126008212205 17.7225316134097  17.392686945329 17.5950775948787  17.5379741767578 17.3621935639881  C 17.6809319580079 17.1300786830357  17.6768949404297 16.8386852120536  17.5258631425781 16.6103794084821  C 17.4011754673967 16.4231420069788  17.1949985019702 16.3066226313854  16.9706550322265 16.2966076822917  C 16.8688884114361 16.3576887445908  16.7529827076983 16.3910869492657  16.6343955556641 16  L 2.0213564326172 16  C 0.905240916992199 16.3932627046131  0 15.475992280506  0 14.3442239025298  Z M 6.16665692187505 6.26138835565474  L 9.28513113378911 2.1273627046131  L 11.2224226972657 3.52171848958332  L 8.10371100390627 7.65645835193455  L 6.16665692187505 6.26138835565474  Z M 5.93749703124997 8.6532430059524  C 5.95791956347659 8.45088643973219  6.07879251660153 7.28507453497027  6.13697300292968 6.73490273437502  L 7.77528808105467 8.02403311011907  L 6.11892517382812 8.79632100074402  C 6.02488651074217 8.83964910714288  5.92704829296874 8.76108714657741  5.93749703124997 8.6532430059524  Z M 8.46466751171873 8.57801396949407  C 8.46466751171873 8.45898069196426  8.56440548828128 8.3613734002976  8.69216508789057 8.3489939546131  L 12.8054069550781 8.34780360863095  C 12.946702421875 8.34780360863095  13.0609261728515 8.45041028645834  13.0609261542969 8.57801396949407  C 13.0609261542969 8.6968091703869  12.9611881777344 8.79465453869048  12.8331910966797 8.80703398437498  L 8.71994924804693 8.80846238839283  C 8.57912872558591 8.80846238839283  8.46466751171873 8.70537957589287  8.46466751171873 8.57801396949407  Z M 10.5330432666016 6.96511307663692  C 10.5330432666016 6.84679399181548  10.6318313544922 6.74894864211307  10.7586410839844 6.73633113839287  L 12.8080191396485 6.73490273437502  C 12.9476523105469 6.73490273437502  13.0609261728515 6.8382236235119  13.0609261542969 6.96511307663692  C 13.0609261542969 7.08414635416667  12.9621380664062 7.18175364583333  12.8353283369141 7.19437116815476  L 10.7859502998047 7.19579957217261  C 10.6463171289062 7.19579957217261  10.5330432666016 7.09247868303572  10.5330432666016 6.96511307663692  Z M 9.61379153808592 1.94619404761906  L 9.72065366113277 1.80716318824406  C 9.83179026464841 1.66313292410715  10.0374404941407 1.62528033854165  10.1953589570313 1.71431724330356  L 11.5351725126954 2.65658463541665  C 11.6840550460744 2.75799455327512  11.7263261920191 2.95925946150982  11.6308734716797 3.11224402901785  L 11.5045387050781 3.27912868303569  L 9.61379153808592 1.94619404761906  Z M 10.3126698183593 3.55957107514882  C 10.2207668880373 3.49525012415716  10.0958749243516 3.50735697176717  10.0179678320313 3.58813906249999  L 7.90067297753902 6.45422226562503  C 7.87319929920698 6.4913802290283  7.85836817147703 6.53640780408653  7.85836817147703 6.5826604306094  C 7.85836817147703 6.65352454971834  7.89309018877946 6.71986778970536  7.95125437304683 6.76013777901787  C 8.04323197703409 6.82449329532428  8.16820762644946 6.81238809014893  8.2461938408203 6.73156979166666  L 10.3632512324219 3.86548658854167  C 10.3907870059102 3.82833350527541  10.4056557639521 3.78327820125405  10.4056557639521 3.73699239591333  C 10.4056557639521 3.66611939135336  10.3708871918819 3.59977940912851  10.3126698183593 3.55957107514882  Z " fill-rule="nonzero" fill="#ffffff" stroke="none" transform="matrix(1 0 0 1 51 119 )" />
  </g>
</svg>