<?xml version="1.0" encoding="utf-8"?>
<svg version="1.1" xmlns:xlink="http://www.w3.org/1999/xlink" width="18px" height="20px" xmlns="http://www.w3.org/2000/svg">
  <g transform="matrix(1 0 0 1 -51 -165 )">
    <path d="M 17.0625083705357 16.984375  C 17.0625083705357 15.8802001953125  14.7803655133929 14.9427001953125  11.6089202008929 14.6041748046875  L 11.6089202008929 15.484375  C 13.51072265625 15.7604248046875  14.8232059151786 16.328125  14.8232059151786 16.984375  C 14.8232059151786 17.9114501953125  12.2142857142857 18.6614501953125  9 18.6614501953125  C 5.78571428571429 18.6614501953125  3.17679408482143 17.9114501953125  3.17679408482143 16.984375  C 3.17679408482143 16.328125  4.49465122767857 15.7552001953125  6.39107979910714 15.484375  L 6.39107979910714 14.6041748046875  C 3.23035714285714 14.9375  0.964285714285714 15.875  0.964285714285714 16.984375  C 0.964285714285714 18.375  4.57500837053572 19.5  9.02679408482143 19.5  C 13.4785797991071 19.5  17.0625083705357 18.375  17.0625083705357 16.984375  Z M 2.23392857142857 7.046875  C 2.23273282542359 8.92692533317269  3.06424646606058 10.7164442583045  4.51607142857143 11.9583251953125  L 9 16.3072998046875  L 13.8214285714286 11.671875  C 15.0609747360379 10.4430899479455  15.7553337099564 8.79064256719293  15.7553337099564 7.06953442283399  C 15.7553337099564 3.43940829142054  12.7284550745888 0.496609618146491  8.9946110537064 0.496609618146491  C 5.26986569017899 0.496609618146491  2.24676921431573 3.42561630404822  2.23392857142857 7.046875  Z M 5.90893694196429 5.578125  C 6.04820591517857 4.875  6.48750837053571 4.9427001953125  6.48750837053571 4.7083251953125  C 6.48750837053571 3.2239501953125  8.55534877232143 2.625  8.55534877232143 2.625  C 8.84293381705329 2.51551114517155  9.16241495526814 2.51551114517155  9.45 2.625  C 9.45 2.625  11.5232142857143 3.3229248046875  11.5232142857143 4.7083251953125  C 11.5232142857143 4.9427001953125  11.8446428571429 4.875  12.1232059151786 5.578125  L 5.90893694196429 5.578125  Z M 4.82677734375 10.4895751953125  L 4.83215122767857 10.1979248046875  C 4.83215122767857 9.625  5.63572265625 9.4791748046875  6.60000837053571 9.0364501953125  C 6.64822265625 9.0364501953125  7.19465122767857 11.453125  7.22142020089286 11.5677001953125  L 7.46786551339286 11.5677001953125  C 7.40892857142857 11.2447998046875  6.99642020089286 8.9635498046875  7.03928571428571 8.9375  C 7.29107979910714 8.8333251953125  7.47321428571429 8.7239501953125  7.72500837053571 8.640625  C 7.82143694196429 8.5989501953125  8.05178571428571 8.3854248046875  7.79464285714286 7.75  C 7.2 7.1979248046875  6.78214285714286 7.0729248046875  6.78214285714286 5.8385498046875  L 11.2017857142857 5.8385498046875  C 11.2017857142857 7.0520751953125  10.78927734375 7.1770751953125  10.1892857142857 7.7291748046875  C 9.93749162946429 8.4270751953125  10.1196512276786 8.5989501953125  10.1892857142857 8.6197998046875  C 10.4410797991071 8.703125  10.6928487723214 8.8125  10.9446428571429 8.9166748046875  C 11.01427734375 8.9166748046875  10.5535797991071 11.34375  10.5107142857143 11.5677001953125  L 10.7839285714286 11.5677001953125  C 10.7839285714286 11.5677001953125  11.3196344866071 9.0208251953125  11.3839202008929 9.0416748046875  C 12.3696512276786 9.46875  13.1785714285714 9.6145751953125  13.1785714285714 10.2083251953125  L 13.1785714285714 10.5208251953125  C 13.1785714285714 11.1354248046875  11.4267857142857 11.6614501953125  11.4267857142857 11.6614501953125  L 10.6714285714286 11.5625  L 10.4892940848214 11.5625  C 9.99342400921279 11.5011313939584  9.49445451226707 11.4663538217505  8.99465122767857 11.4583251953125  C 8.48424930769204 11.4681685033201  7.97467838247708 11.5029372669469  7.46786551339286 11.5625  L 7.21607142857143 11.5625  L 6.59463448660714 11.6354248046875  C 6.59463448660714 11.6354248046875  4.82677734375 11.1145751953125  4.82677734375 10.4895751953125  Z " fill-rule="nonzero" fill="#ffffff" stroke="none" transform="matrix(1 0 0 1 51 165 )" />
  </g>
</svg>