<?xml version="1.0" encoding="utf-8"?>
<svg version="1.1" xmlns:xlink="http://www.w3.org/1999/xlink" width="16px" height="16px" xmlns="http://www.w3.org/2000/svg">
  <g transform="matrix(1 0 0 1 -1546 -7 )">
    <path d="M 15.59375 0.71875  C 15.8645833333333 0.836805555555555  16 1.04166666666667  16 1.33333333333333  L 16 6  C 16 6.18055555555556  15.9340277777778 6.33680555555556  15.8020833333333 6.46875  C 15.6701388888889 6.60069444444444  15.5138888888889 6.66666666666667  15.3333333333333 6.66666666666667  L 10.6666666666667 6.66666666666667  C 10.375 6.66666666666667  10.1701388888889 6.52777777777778  10.0520833333333 6.25  C 9.93402777777778 5.97916666666667  9.98263888888889 5.73958333333333  10.1979166666667 5.53125  L 11.6354166666667 4.09375  C 10.6076388888889 3.14236111111111  9.39583333333333 2.66666666666667  8 2.66666666666667  C 7.27777777777778 2.66666666666667  6.58854166666667 2.80729166666667  5.93229166666667 3.08854166666667  C 5.27604166666667 3.36979166666667  4.70833333333333 3.75  4.22916666666667 4.22916666666667  C 3.75 4.70833333333333  3.36979166666667 5.27604166666667  3.08854166666667 5.93229166666667  C 2.80729166666667 6.58854166666667  2.66666666666667 7.27777777777778  2.66666666666667 8  C 2.66666666666667 8.72222222222222  2.80729166666667 9.41145833333333  3.08854166666667 10.0677083333333  C 3.36979166666667 10.7239583333333  3.75 11.2916666666667  4.22916666666667 11.7708333333333  C 4.70833333333333 12.25  5.27604166666667 12.6302083333333  5.93229166666667 12.9114583333333  C 6.58854166666667 13.1927083333333  7.27777777777778 13.3333333333333  8 13.3333333333333  C 8.82638888888889 13.3333333333333  9.60763888888889 13.1527777777778  10.34375 12.7916666666667  C 11.0798611111111 12.4305555555556  11.7013888888889 11.9201388888889  12.2083333333333 11.2604166666667  C 12.2569444444444 11.1909722222222  12.3368055555556 11.1493055555556  12.4479166666667 11.1354166666667  C 12.5520833333333 11.1354166666667  12.6388888888889 11.1666666666667  12.7083333333333 11.2291666666667  L 14.1354166666667 12.6666666666667  C 14.1979166666667 12.7222222222222  14.2309027777778 12.7934027777778  14.234375 12.8802083333333  C 14.2378472222222 12.9670138888889  14.2118055555556 13.0451388888889  14.15625 13.1145833333333  C 13.3993055555556 14.03125  12.4826388888889 14.7413194444444  11.40625 15.2447916666667  C 10.3298611111111 15.7482638888889  9.19444444444444 16  8 16  C 6.91666666666667 16  5.88194444444445 15.7881944444444  4.89583333333333 15.3645833333333  C 3.90972222222222 14.9409722222222  3.05902777777778 14.3715277777778  2.34375 13.65625  C 1.62847222222222 12.9409722222222  1.05902777777778 12.0902777777778  0.635416666666667 11.1041666666667  C 0.211805555555556 10.1180555555556  0 9.08333333333333  0 8  C 0 6.91666666666667  0.211805555555556 5.88194444444444  0.635416666666667 4.89583333333333  C 1.05902777777778 3.90972222222222  1.62847222222222 3.05902777777778  2.34375 2.34375  C 3.05902777777778 1.62847222222222  3.90972222222222 1.05902777777778  4.89583333333333 0.635416666666666  C 5.88194444444445 0.211805555555555  6.91666666666667 0  8 0  C 9.02083333333333 0  10.0086805555556 0.192708333333334  10.9635416666667 0.578125  C 11.9184027777778 0.963541666666666  12.7673611111111 1.50694444444444  13.5104166666667 2.20833333333333  L 14.8645833333333 0.864583333333334  C 15.0659722222222 0.649305555555555  15.3090277777778 0.600694444444443  15.59375 0.71875  Z " fill-rule="nonzero" fill="#0a92fa" stroke="none" transform="matrix(1 0 0 1 1546 7 )" />
  </g>
</svg>