<?xml version="1.0" encoding="utf-8"?>
<svg version="1.1" xmlns:xlink="http://www.w3.org/1999/xlink" width="18px" height="18px" xmlns="http://www.w3.org/2000/svg">
  <g transform="matrix(1 0 0 1 -8 -64 )">
    <path d="M 14.77734375 10.27734375  C 14.92578125 10.12890625  15 9.953125  15 9.75  L 15 8.25  C 15 8.046875  14.92578125 7.87109375  14.77734375 7.72265625  C 14.62890625 7.57421875  14.453125 7.5  14.25 7.5  L 10.5 7.5  L 10.5 3.75  C 10.5 3.546875  10.42578125 3.37109375  10.27734375 3.22265625  C 10.12890625 3.07421875  9.953125 3  9.75 3  L 8.25 3  C 8.046875 3  7.87109375 3.07421875  7.72265625 3.22265625  C 7.57421875 3.37109375  7.5 3.546875  7.5 3.75  L 7.5 7.5  L 3.75 7.5  C 3.546875 7.5  3.37109375 7.57421875  3.22265625 7.72265625  C 3.07421875 7.87109375  3 8.046875  3 8.25  L 3 9.75  C 3 9.953125  3.07421875 10.12890625  3.22265625 10.27734375  C 3.37109375 10.42578125  3.546875 10.5  3.75 10.5  L 7.5 10.5  L 7.5 14.25  C 7.5 14.453125  7.57421875 14.62890625  7.72265625 14.77734375  C 7.87109375 14.92578125  8.046875 15  8.25 15  L 9.75 15  C 9.953125 15  10.12890625 14.92578125  10.27734375 14.77734375  C 10.42578125 14.62890625  10.5 14.453125  10.5 14.25  L 10.5 10.5  L 14.25 10.5  C 14.453125 10.5  14.62890625 10.42578125  14.77734375 10.27734375  Z M 17.009765625 0.990234375000001  C 17.669921875 1.650390625  18 2.4453125  18 3.375  L 18 14.625  C 18 15.5546875  17.669921875 16.349609375  17.009765625 17.009765625  C 16.349609375 17.669921875  15.5546875 18  14.625 18  L 3.375 18  C 2.4453125 18  1.650390625 17.669921875  0.990234375 17.009765625  C 0.330078125 16.349609375  0 15.5546875  0 14.625  L 0 3.375  C 0 2.4453125  0.330078125 1.650390625  0.990234375 0.990234375000001  C 1.650390625 0.330078124999999  2.4453125 0  3.375 0  L 14.625 0  C 15.5546875 0  16.349609375 0.330078124999999  17.009765625 0.990234375000001  Z " fill-rule="nonzero" fill="#0a92fa" stroke="none" transform="matrix(1 0 0 1 8 64 )" />
  </g>
</svg>