<?xml version="1.0" encoding="utf-8"?>
<svg version="1.1" xmlns:xlink="http://www.w3.org/1999/xlink" width="16px" height="16px" xmlns="http://www.w3.org/2000/svg">
  <g transform="matrix(1 0 0 1 -1438 -7 )">
    <path d="M 15.6137931034483 15.6  C 15.448275862069 15.751724137931  15.2551724137931 15.8620689655172  15.0344827586207 15.8620689655172  C 14.8137931034483 15.8620689655172  14.6068965517241 15.7793103448276  14.4551724137931 15.6137931034483  L 11.1448275862069 12.3034482758621  C 9.95862068965517 13.2413793103448  8.46896551724138 13.751724137931  6.95172413793103 13.751724137931  C 3.2 13.751724137931  0.137931034482759 10.7034482758621  0.137931034482759 6.95172413793103  C 0.137931034482759 3.2  3.2 0.137931034482759  6.95172413793103 0.137931034482759  C 10.7034482758621 0.137931034482759  13.751724137931 3.18620689655172  13.751724137931 6.93793103448276  C 13.751724137931 8.4551724137931  13.2413793103448 9.93103448275862  12.3034482758621 11.1310344827586  L 15.6137931034483 14.4413793103448  C 15.7655172413793 14.5931034482759  15.8620689655172 14.8  15.8620689655172 15.0206896551724  C 15.8620689655172 15.2413793103448  15.7793103448276 15.448275862069  15.6137931034483 15.6  Z M 10.4275862068966 10.7172413793103  L 10.7172413793103 10.4137931034483  C 11.5862068965517 9.46206896551724  12.0689655172414 8.23448275862069  12.0689655172414 6.93793103448276  C 12.0689655172414 4.11034482758621  9.76551724137931 1.82068965517241  6.93793103448276 1.82068965517241  C 4.11034482758621 1.82068965517241  1.82068965517241 4.12413793103448  1.82068965517241 6.95172413793103  C 1.82068965517241 9.77931034482759  4.12413793103448 12.0689655172414  6.95172413793104 12.0689655172414  C 8.24827586206897 12.0689655172414  9.47586206896552 11.5862068965517  10.4275862068966 10.7172413793103  Z " fill-rule="nonzero" fill="#0a92fa" stroke="none" transform="matrix(1 0 0 1 1438 7 )" />
  </g>
</svg>