<?xml version="1.0" encoding="utf-8"?>
<svg version="1.1" xmlns:xlink="http://www.w3.org/1999/xlink" width="43px" height="32px" xmlns="http://www.w3.org/2000/svg">
  <g transform="matrix(1 0 0 1 -624 -167 )">
    <path d="M 37.727423381107 0  L 37.729204618728 0.0177580188679254  C 40.5988401133363 0.0177580188679254  42.8753107050506 2.19844616745283  42.8753107050506 4.94916757075472  L 42.8753107050506 27.0508324292453  C 42.8753107050506 29.798002240566  40.5988401133363 31.9822419811321  37.729204618728 32  L 5.27257661889305 32  C 2.40115988666373 31.9822419811321  0.124689294949384 29.7997780070755  0.124689294949384 27.0508324292453  L 0.124689294949384 4.94916757075472  C 0.124689294949384 2.19844616745283  2.40115988666373 0.0177580188679254  5.27079538127201 0  L 37.727423381107 0  Z M 40 6.70011096698113  C 39.9397679990097 4.3862375  37.9768019710057 2.55005548349057  35.5008285073724 3  L 7.49917149262764 3  C 5.02319802899428 2.55005548349056  3.06023200099032 4.3862375  3 6.70011096698113  L 3 25.2998890330189  C 3.06023200099032 27.6137625  5.02497932575924 29.4499445165094  7.49917149262764 29  L 35.5008285073724 29  C 37.9768019710057 29.4499445165094  39.9397679990097 27.6137625  40 25.2998890330189  L 40 6.70011096698113  Z M 32.5759734636334 23.8952275353774  L 32.5795360571633 23.8952275353774  L 36.5214996066241 26  L 5.90136704307878 26  L 10.7304059721611 23.524084375  L 13.2544739161532 24.4013318396226  L 15.2655343653719 23.9964484080189  L 18.5787075497909 22.5473918042453  L 20.905053859485 23.001997759434  L 22.6400165630502 23.6768035377358  L 24.4141673814371 24.974916745283  L 26.0315658588248 24.6730299528302  L 27.8449047328895 23.6253051886792  L 30.5453189865757 23.2541620283019  L 32.5759734636334 23.8952275353774  Z M 7.92845898575044 13.5298557193396  C 7.92845898575044 13.5298557193396  8.84759735227773 12.8621531839623  9.67232811399648 14.0466148584906  C 10.5843413526078 15.3571587264151  11.8312344795334 17.0264150943396  12.2427091824384 17.0264150943396  C 13.2330985915493 17.0264150943396  13.9527340270136 13.5298557193396  15.9709196632923 13.5298557193396  C 18.0176056338028 13.5298557193396  18.4825186482174 17.0832408608491  19.157622196853 17.0832408608491  C 19.941383606129 17.0832408608491  19.7080364505392 6.1567147995283  22.6097348729093 6.08213095518868  C 25.3386495199714 6.01109876179245  26.1544739161532 16.5753606721698  26.9275476631272 16.5753607311321  C 27.7789975214569 16.5753607311321  27.7433720001651 13.5245283018868  29.7170256904709 13.5245283018868  C 31.7120547053807 13.5245283018868  32.3800331261004 16.243285259434  33.4398922810299 16.5753607311321  C 34.3055923360475 16.8470588443396  35.2354183648768 18.2091010023585  34.5425020851673 18.7205327240566  C 32.8431649028939 19.972475  31.0120132977553 16.6659267099057  29.7348384215449 16.601997759434  C 28.9510770122689 16.561154245283  28.5663214651188 19.7984461674528  26.4929163388534 19.7984461674528  C 24.7330157762984 19.7984461674528  24.5067937486246 15.5169811320755  24.0881938586598 12.8550499410377  C 23.655343831151 10.0901221108491  23.1690554921325 9.1223085495283  22.6453603942011 9.1223085495283  C 22.1252278306558 9.1223085495283  21.6407207884023 9.90899003537736  21.3414664213798 12.6952275353774  C 21.0439933511224 15.4530521816038  21.1811516051386 20.0754716981132  19.1718723935409 20.0825749410377  C 16.8847141395246 20.0896781839623  16.8918392674406 16.5753607311321  15.9424192107724 16.5753607311321  C 15.1194697458187 16.5753607311321  14.3089892399318 20.0736959316038  12.1803645645356 20.089678125  C 10.2975559446523 20.1021087853774  9.67232811399648 17.7846836674528  8.60712512791593 16.795560495283  C 7.54370343860035 15.8064373231132  7.19457335359815 14.050166509434  7.92845898575044 13.5298557193396  Z " fill-rule="nonzero" fill="#ffffff" stroke="none" transform="matrix(1 0 0 1 624 167 )" />
  </g>
</svg>