<?xml version="1.0" encoding="utf-8"?>
<svg version="1.1" xmlns:xlink="http://www.w3.org/1999/xlink" width="27px" height="39px" xmlns="http://www.w3.org/2000/svg">
  <g transform="matrix(1 0 0 1 -1212 -164 )">
    <path d="M 14.1230769230769 38.3348837209302  L 13.5296703296703 38.8186046511628  L 12.8175824175824 38.5767441860465  C 9.25714285714286 37.246511627907  0.712087912087914 22.0093023255814  0.11868131868132 15.9627906976744  C -0.237362637362637 11.8511627906977  0.94945054945055 7.86046511627907  3.67912087912088 4.71627906976744  C 6.17142857142857 1.81395348837209  9.85054945054945 0.120930232558137  13.5296703296703 0.120930232558137  C 17.0901098901099 0.120930232558137  20.6505494505495 1.69302325581395  23.1428571428571 4.47441860465116  C 25.8725274725275 7.37674418604651  27.178021978022 11.246511627907  26.9406593406594 15.2372093023256  C 26.821978021978 16.446511627907  26.5846153846154 17.8976744186046  25.9912087912088 19.5906976744186  L 24.8043956043956 19.2279069767442  C 25.2791208791209 17.6558139534884  25.6351648351648 16.3255813953488  25.7538461538462 15.1162790697674  C 25.9912087912088 11.4883720930232  24.6857142857143 7.9813953488372  22.1934065934066 5.32093023255813  C 19.8197802197802 2.7813953488372  16.6153846153846 1.33023255813953  13.410989010989 1.33023255813953  C 10.0879120879121 1.33023255813953  6.76483516483517 2.90232558139534  4.50989010989011 5.44186046511627  C 2.01758241758242 8.22325581395348  0.949450549450552 11.9720930232558  1.18681318681319 15.7209302325581  C 1.8989010989011 22.1302325581395  10.443956043956 36.4  13.0549450549451 37.246511627907  L 13.410989010989 37.3674418604651  L 13.767032967033 37.246511627907  C 14.4791208791209 37.0046511627907  15.7846153846154 35.6744186046512  17.0901098901099 33.7395348837209  L 18.0395604395604 34.4651162790698  C 16.378021978022 36.7627906976744  15.0725274725275 38.0930232558139  14.1230769230769 38.3348837209302  Z " fill-rule="nonzero" fill="#ffffff" stroke="none" transform="matrix(1 0 0 1 1212 164 )" />
  </g>
</svg>