<?xml version="1.0" encoding="utf-8"?>
<svg version="1.1" xmlns:xlink="http://www.w3.org/1999/xlink" width="39px" height="20px" xmlns="http://www.w3.org/2000/svg">
  <g transform="matrix(1 0 0 1 -1017 -183 )">
    <path d="M 27.4481411637931 13.2058189655172  L 27.4481411637931 10.4377693965517  L 29.2605064655172 10.3704202586207  L 29.2605064655172 13.2058189655172  L 27.4481411637931 13.2058189655172  Z M 31.1470736799569 13.2051454741379  L 31.1470736799569 10.3704202586207  L 32.959438981681 10.3704202586207  L 32.959438981681 13.2051454741379  L 31.1470736799569 13.2051454741379  Z M 27.4481411637931 2.9162176724138  L 27.4481411637931 0.148841594827586  L 29.2605064655172 0.148841594827586  L 29.2605064655172 2.84886853448276  L 27.4481411637931 2.9162176724138  Z M 31.1470736799569 2.84886853448276  L 31.1470736799569 0.148841594827586  L 32.959438981681 0.148841594827586  L 32.959438981681 2.84886853448276  L 31.1470736799569 2.84886853448276  Z M 27.4481411637931 8.06101831896552  L 27.4481411637931 5.29364224137931  L 29.2605064655172 5.22629310344828  L 29.2605064655172 7.99366918103449  L 27.4481411637931 8.06101831896552  Z M 31.1470736799569 7.99366918103449  L 31.1470736799569 5.22629310344828  L 32.959438981681 5.22629310344828  L 32.959438981681 7.99366918103449  L 31.1470736799569 7.99366918103449  Z M 38.9980300377155 15.5172413793103  L 23.483920393319 15.5172413793103  L 23.483920393319 17  L 37.0484240301724 17  L 37.0484240301724 18  L 2.16039197198275 18  L 2.16039197198275 16.9477370689655  L 11.8453832165948 16.9477370689655  L 11.8453832165948 15.5172413793103  L 0.210785964439655 15.5172413793103  L 0.210785964439655 19.8080549568966  L 38.9980300377155 19.8080549568966  L 38.9980300377155 15.5172413793103  Z " fill-rule="nonzero" fill="#ffffff" stroke="none" transform="matrix(1 0 0 1 1017 183 )" />
  </g>
</svg>