<?xml version="1.0" encoding="utf-8"?>
<svg version="1.1" xmlns:xlink="http://www.w3.org/1999/xlink" width="60px" height="64px" xmlns="http://www.w3.org/2000/svg">
  <g transform="matrix(1 0 0 1 -806 -151 )">
    <path d="M 2 41.756638125  L 2 22.2483424375  C 2.58825901624969 22.6857844617099  3.61056119985538 22.9119296196239  4.64541110131048 22.9105058125  C 5.15844648774807 22.9108316474847  5.66998675874158 22.8556361413159  7 22.7458988125  L 7 41.756638125  C 6.1708952263068 43.589343956565  7.13796374194598 45.2883460071998  8.71996862399193 46.2348949375  L 8.80682692792339 46.2856965  L 26.6526910912298 56.506521375  C 27.5083262828389 55.5683015287013  28.724608215478 55.0336147271683  29.9999987399194 55.0350194375  C 32.4955428427419 55.0350194375  34.5186381048387 57.0419299375  34.5186381048387 59.51750975  C 34.5186381048387 61.9930895625  32.4955428427419 64  29.9999987399194 64  C 28.0866059727823 64  26.4511095640121 62.820358  25.7921413180444 61.15436575  L 25.680681577621 61.1010739375  C 25.5343886256053 61.0296180883185  25.3899146222927 60.9545545495463  25.2473942792339 60.8759533125  L 25.1048060735887 60.7960155625  L 6.54750724546371 50.1675330625  C 3.55606559432665 48.4542436285998  1.69611317051756 45.3039831648363  1.65306766633064 41.877665375  L 2 41.756638125  Z M 50.8359470136089 16.1867704375  C 50.8359470136089 13.7111906875  52.8590422757056 11.7042801875  55.3545864415323 11.704280125  C 57.8501305443548 11.704280125  59.8732258064516 13.711190625  59.8732258064516 16.1867704375  C 59.8746312746407 17.4917814365605  59.3013595629276 18.732301779945  58.3037517011089 19.583003875  C 58.3278511214718 19.832031125  58.3419090851814 20.0830505625  58.346427734375 20.3355641875  L 58 20.4999221875  L 58 41.7568871875  C 58.3477718466611 45.1834932595985  56.5275970183418 48.3565654912064  53.5579252142137 50.1067704375  L 53.452490297379 50.1675330625  L 36.774945375504 59.7192218125  C 36.8250671046135 58.1461150661206  36.3148885589777 56.605781111098  35.3340015120968 55.3687159375  L 51.1931705519153 46.2856965  C 52.7930893068581 45.3693537796642  53.7927235222161 43.6890692634381  53.8280394405242 41.8567470625  L 53 41.756638125  L 53 20.5001711875  L 53.8280394405242 20.407035  C 52.0835935609879 19.7859610625  50.8359470136089 18.1309260625  50.8359470136089 16.1867704375  Z M 10 22.175128375  C 9.34680430947581 21.811797625  9.38646793094758 21.4541945  9.46328477822581 21.107548625  L 18.2603225806452 26.1458676875  L 18.2603225806452 36.126879375  C 18.260295844276 37.1652770264547  18.8036697679249 38.1292461571716  19.6954926285282 38.672933875  L 19.7665357232863 38.7147704375  L 29 43.569307375  L 29 53.7004825  C 27.9823151815647 53.603905817219  27.7304141868781 53.4860430100305  27.4896435231855 53.3481089375  L 11.8571595262097 44.3950816875  C 10.3037081128556 43.5053711812777  9.34676020087651 41.8611019504826  10 40.0816809375  L 10 22.175128375  Z M 50.5808949722782 21.331673125  C 50.628591733871 21.6075953125  50.6531932333669 21.889494125  50 22.175128375  L 50 40.0816809375  C 50.6531476024699 41.8610129913403  49.6962117048613 43.505166660867  48.142837953629 44.3948326875  L 32.5103539566532 53.348358  C 32.2673515625 53.48781325  32.0153119329637 53.6051050625  31 53.7007315  L 31 43.5695564375  L 40.2334617565524 38.7150194375  C 41.1400258163727 38.1958625417144  41.7099183634277 37.2470716777523  41.7386707409274 36.209058375  L 41.7396748991935 36.126879375  L 41.7396748991935 32.638754875  L 37.4831166204637 29.7032218125  C 37.3480286311041 29.6101412481145  37.2674661987687 29.4573256612804  37.2674661987687 29.2941633371409  C 37.2674661987687 29.1182811091175  37.3609801847436 28.9554393007774  37.5134919354839 28.8657431875  L 41.7522266885081 26.3722334375  L 41.7522266885081 26.3879221875  L 50.5808949722782 21.3319221875  Z M 27.4896435231855 8.908700375  C 29.0430567373931 8.01901174591362  30.9569407424457 8.01901174591362  32.5103539566532 8.908700375  L 48.142837953629 17.861727625  C 48.3798154611895 17.9974475  48.6027350050403 18.15059925  48.8105924269153 18.3191906875  L 39.9625944430444 23.3866459375  L 31.5062118825605 18.5435641875  C 30.6025468292332 18.0260373276809  29.4932598382119 18.0092673531733  28.5741169984879 18.499237375  L 28.4937855972782 18.5435641875  L 20.2547997731855 23.2621323125  L 11.3744182207661 18.176249  C 11.5291228698533 18.062317852726  11.6903025794813 17.9573041252436  11.8571595262097 17.861727625  L 27.4896435231855 8.908700375  Z M 25.1048060735887 1.46079375  C 28.0924691315536 -0.250310871518592  31.7674440192001 -0.275286394549514  34.7784598664314 1.3950505625  L 34.89519140625 1.46079375  L 51.2089858240927 10.80429575  C 49.9545886271783 11.713376777471  49.0385168663408 13.0085043612887  48.6034881552419 14.487906625  L 32.6358717237903 5.342630375  C 31.0377079880806 4.42737958394733  29.0734505410438 4.40773357351026  27.4570088835685 5.2908326875  L 27.3641257560484 5.342630375  L 9.14547385332661 15.776871625  C 9.15777457157258 15.911844375  9.16405046622984 16.0485603125  9.16405046622984 16.1867704375  C 9.16405046622984 18.6623501875  7.14095520413306 20.6692606875  4.64541110131048 20.6692606875  C 2.1498669984879 20.6692606875  0.126771673387097 18.6623501875  0.126771673387097 16.1867704375  C 0.126771673387097 13.7111906875  2.14986693548387 11.7042801875  4.64541110131048 11.704280125  C 5.31316557459678 11.704280125  5.94753232106855 11.8479688125  6.51813608870968 12.106210125  L 6.54750724546371 12.08927625  L 25.1048060735887 1.46079375  Z " fill-rule="nonzero" fill="#33d5e9" stroke="none" transform="matrix(1 0 0 1 806 151 )" />
  </g>
</svg>